<svg xmlns="http://www.w3.org/2000/svg" viewBox="330 173 842 775" preserveAspectRatio="xMidYMid meet" role="img" aria-labelledby="title">
  <title>Storefront logo mark</title>
  <path fill="#5a3055" d="M 776.140625 850.5625 C 784.949219 881.117188 787.777344 898.75 762.953125 940.855469 C 759.519531 949.382812 774.070312 949.28125 777.273438 944.609375 C 797.082031 905.136719 795.171875 888.53125 789.542969 853.300781 C 822.121094 875.617188 854.816406 879.535156 892.429688 866.285156 L 889.042969 858.300781 C 945.074219 845.222656 977.363281 823.90625 997.371094 797.019531 C 1016.378906 771.023438 1040.394531 742.4375 1065.652344 725.527344 C 1041.328125 726.980469 1021.316406 720.925781 1003.765625 707.269531 C 1005.507812 661.84375 1059.757812 630.226562 1069.558594 595.925781 L 1054.441406 589.199219 C 1089.074219 529.269531 1107.441406 465.445312 1173.046875 421.929688 L 1015.121094 437.625 L 1008.988281 426.578125 C 961.277344 430.492188 923.980469 454.414062 899.84375 501.414062 C 880.363281 454.695312 833.601562 426.703125 842.886719 369.109375 C 821.085938 361.007812 810.230469 332.269531 807.328125 300.109375 C 776.6875 261.429688 757.882812 219.621094 749.984375 173.609375 C 737.542969 219.367188 723.316406 263.070312 706.207031 305.652344 L 691.097656 298.917969 C 696.078125 329.261719 691.375 359.027344 675.066406 388.078125 L 660.992188 380.445312 C 657.398438 440.324219 634.050781 490.246094 651.34375 557.199219 C 618.570312 505.800781 566.242188 473.601562 516.058594 454.089844 L 515.25 467.636719 C 462.929688 435.417969 390.445312 448.46875 329.003906 438.964844 C 428.394531 526.355469 403.449219 570.394531 452.574219 623.726562 L 441.1875 635.632812 C 507.605469 675.488281 506.734375 721.960938 551.570312 749.851562 C 510.203125 760.914062 482.433594 803.828125 437.902344 803.089844 C 509.332031 823.863281 570.378906 872.085938 655.015625 866.527344 L 650.574219 875.949219 C 687.128906 880.074219 726.109375 876.617188 776.140625 850.5625 Z M 776.140625 850.5625" fill-rule="evenodd"/>
</svg>
