<svg xmlns="http://www.w3.org/2000/svg" xmlns:xlink="http://www.w3.org/1999/xlink" width="2000" zoomAndPan="magnify" viewBox="0 0 1500 1499.999933" height="2000" preserveAspectRatio="xMidYMid meet" version="1.0"><defs><g/><clipPath id="47bbf0fe44"><path d="M 330.359375 173.277344 L 1171.859375 173.277344 L 1171.859375 948 L 330.359375 948 Z M 330.359375 173.277344 " clip-rule="nonzero"/></clipPath><clipPath id="f7ab971177"><rect x="0" width="574" y="0" height="306"/></clipPath></defs><g clip-path="url(#47bbf0fe44)"><path fill="#5a3055" d="M 776.140625 850.5625 C 784.949219 881.117188 787.777344 898.75 762.953125 940.855469 C 759.519531 949.382812 774.070312 949.28125 777.273438 944.609375 C 797.082031 905.136719 795.171875 888.53125 789.542969 853.300781 C 822.121094 875.617188 854.816406 879.535156 892.429688 866.285156 L 889.042969 858.300781 C 945.074219 845.222656 977.363281 823.90625 997.371094 797.019531 C 1016.378906 771.023438 1040.394531 742.4375 1065.652344 725.527344 C 1041.328125 726.980469 1021.316406 720.925781 1003.765625 707.269531 C 1005.507812 661.84375 1059.757812 630.226562 1069.558594 595.925781 L 1054.441406 589.199219 C 1089.074219 529.269531 1107.441406 465.445312 1173.046875 421.929688 L 1015.121094 437.625 L 1008.988281 426.578125 C 961.277344 430.492188 923.980469 454.414062 899.84375 501.414062 C 880.363281 454.695312 833.601562 426.703125 842.886719 369.109375 C 821.085938 361.007812 810.230469 332.269531 807.328125 300.109375 C 776.6875 261.429688 757.882812 219.621094 749.984375 173.609375 C 737.542969 219.367188 723.316406 263.070312 706.207031 305.652344 L 691.097656 298.917969 C 696.078125 329.261719 691.375 359.027344 675.066406 388.078125 L 660.992188 380.445312 C 657.398438 440.324219 634.050781 490.246094 651.34375 557.199219 C 618.570312 505.800781 566.242188 473.601562 516.058594 454.089844 L 515.25 467.636719 C 462.929688 435.417969 390.445312 448.46875 329.003906 438.964844 C 428.394531 526.355469 403.449219 570.394531 452.574219 623.726562 L 441.1875 635.632812 C 507.605469 675.488281 506.734375 721.960938 551.570312 749.851562 C 510.203125 760.914062 482.433594 803.828125 437.902344 803.089844 C 509.332031 823.863281 570.378906 872.085938 655.015625 866.527344 L 650.574219 875.949219 C 687.128906 880.074219 726.109375 876.617188 776.140625 850.5625 Z M 776.140625 850.5625 " fill-opacity="1" fill-rule="evenodd"/></g><g transform="matrix(1, 0, 0, 1, 463, 1020)"><g clip-path="url(#f7ab971177)"><g fill="#5a3055" fill-opacity="1"><g transform="translate(1.314961, 111.012166)"><g><path d="M 50.671875 -36.734375 L 23.96875 -36.734375 L 23.96875 -14.21875 L 55.5625 -14.21875 L 55.5625 0 L 6.828125 0 L 6.828125 -84.890625 L 55.453125 -84.890625 L 55.453125 -70.609375 L 23.96875 -70.609375 L 23.96875 -50.546875 L 50.671875 -50.546875 Z M 50.671875 -36.734375 "/></g></g></g><g fill="#5a3055" fill-opacity="1"><g transform="translate(59.90028, 111.012166)"><g><path d="M 33.40625 -55.734375 L 44.828125 -84.890625 L 64.484375 -84.890625 L 44.546875 -42.796875 L 64.953125 0 L 45.0625 0 L 33.40625 -29.671875 L 21.8125 0 L 1.921875 0 L 22.328125 -42.796875 L 2.328125 -84.890625 L 21.984375 -84.890625 Z M 33.40625 -55.734375 "/></g></g></g><g fill="#5a3055" fill-opacity="1"><g transform="translate(126.705032, 111.012166)"><g><path d="M 66.578125 -34.8125 C 66.578125 -23.414062 63.882812 -14.566406 58.5 -8.265625 C 53.125 -1.972656 45.65625 1.171875 36.09375 1.171875 C 26.570312 1.171875 19.085938 -1.945312 13.640625 -8.1875 C 8.203125 -14.425781 5.441406 -23.164062 5.359375 -34.40625 L 5.359375 -48.921875 C 5.359375 -60.578125 8.0625 -69.679688 13.46875 -76.234375 C 18.875 -82.785156 26.375 -86.0625 35.96875 -86.0625 C 45.414062 -86.0625 52.859375 -82.84375 58.296875 -76.40625 C 63.742188 -69.976562 66.503906 -60.953125 66.578125 -49.328125 Z M 49.390625 -49.03125 C 49.390625 -56.6875 48.300781 -62.378906 46.125 -66.109375 C 43.945312 -69.847656 40.5625 -71.71875 35.96875 -71.71875 C 31.425781 -71.71875 28.066406 -69.914062 25.890625 -66.3125 C 23.710938 -62.71875 22.582031 -57.25 22.5 -49.90625 L 22.5 -34.8125 C 22.5 -27.382812 23.609375 -21.910156 25.828125 -18.390625 C 28.046875 -14.878906 31.46875 -13.125 36.09375 -13.125 C 40.5625 -13.125 43.882812 -14.84375 46.0625 -18.28125 C 48.238281 -21.71875 49.347656 -27.050781 49.390625 -34.28125 Z M 49.390625 -49.03125 "/></g></g></g><g fill="#5a3055" fill-opacity="1"><g transform="translate(198.756228, 111.012166)"><g><path d="M 61.796875 -70.609375 L 40.8125 -70.609375 L 40.8125 0 L 23.609375 0 L 23.609375 -70.609375 L 2.96875 -70.609375 L 2.96875 -84.890625 L 61.796875 -84.890625 Z M 61.796875 -70.609375 "/></g></g></g><g fill="#5a3055" fill-opacity="1"><g transform="translate(263.578989, 111.012166)"><g><path d="M 24.71875 0 L 7.578125 0 L 7.578125 -84.890625 L 24.71875 -84.890625 Z M 24.71875 0 "/></g></g></g><g fill="#5a3055" fill-opacity="1"><g transform="translate(295.873782, 111.012166)"><g><path d="M 64.375 -28.28125 C 63.9375 -18.601562 61.210938 -11.273438 56.203125 -6.296875 C 51.191406 -1.316406 44.117188 1.171875 34.984375 1.171875 C 25.378906 1.171875 18.019531 -1.984375 12.90625 -8.296875 C 7.800781 -14.617188 5.25 -23.628906 5.25 -35.328125 L 5.25 -49.609375 C 5.25 -61.273438 7.890625 -70.265625 13.171875 -76.578125 C 18.460938 -82.898438 25.8125 -86.0625 35.21875 -86.0625 C 44.46875 -86.0625 51.492188 -83.472656 56.296875 -78.296875 C 61.097656 -73.128906 63.828125 -65.707031 64.484375 -56.03125 L 47.28125 -56.03125 C 47.125 -62.019531 46.203125 -66.148438 44.515625 -68.421875 C 42.828125 -70.691406 39.726562 -71.828125 35.21875 -71.828125 C 30.625 -71.828125 27.375 -70.222656 25.46875 -67.015625 C 23.570312 -63.804688 22.566406 -58.53125 22.453125 -51.1875 L 22.453125 -35.15625 C 22.453125 -26.71875 23.394531 -20.925781 25.28125 -17.78125 C 27.164062 -14.632812 30.398438 -13.0625 34.984375 -13.0625 C 39.492188 -13.0625 42.601562 -14.15625 44.3125 -16.34375 C 46.019531 -18.539062 46.988281 -22.519531 47.21875 -28.28125 Z M 64.375 -28.28125 "/></g></g></g><g fill="#5a3055" fill-opacity="1"><g transform="translate(363.960998, 111.012166)"><g/></g></g><g fill="#5a3055" fill-opacity="1"><g transform="translate(391.475694, 111.012166)"><g><path d="M 49.03125 -32.0625 L 56.265625 -32.0625 L 56.265625 -18.359375 L 49.03125 -18.359375 L 49.03125 0 L 32.53125 0 L 32.53125 -18.359375 L 4.4375 -18.359375 L 3.671875 -29.03125 L 32.46875 -84.890625 L 49.03125 -84.890625 Z M 19.703125 -32.0625 L 32.53125 -32.0625 L 32.53125 -60.46875 L 32.1875 -59.8125 Z M 19.703125 -32.0625 "/></g></g></g><g fill="#5a3055" fill-opacity="1"><g transform="translate(451.868121, 111.012166)"><g><path d="M 55.5625 0 L 5.53125 0 L 5.53125 -11.65625 L 28.515625 -40.875 C 31.429688 -44.914062 33.578125 -48.460938 34.953125 -51.515625 C 36.328125 -54.566406 37.015625 -57.488281 37.015625 -60.28125 C 37.015625 -64.050781 36.363281 -67.003906 35.0625 -69.140625 C 33.757812 -71.285156 31.882812 -72.359375 29.4375 -72.359375 C 26.757812 -72.359375 24.632812 -71.113281 23.0625 -68.625 C 21.488281 -66.132812 20.703125 -62.632812 20.703125 -58.125 L 4.140625 -58.125 C 4.140625 -63.332031 5.21875 -68.09375 7.375 -72.40625 C 9.53125 -76.726562 12.5625 -80.082031 16.46875 -82.46875 C 20.375 -84.863281 24.796875 -86.0625 29.734375 -86.0625 C 37.316406 -86.0625 43.195312 -83.96875 47.375 -79.78125 C 51.550781 -75.601562 53.640625 -69.671875 53.640625 -61.984375 C 53.640625 -57.203125 52.484375 -52.351562 50.171875 -47.4375 C 47.859375 -42.519531 43.671875 -36.460938 37.609375 -29.265625 L 26.703125 -13.703125 L 55.5625 -13.703125 Z M 55.5625 0 "/></g></g></g><g fill="#5a3055" fill-opacity="1"><g transform="translate(512.260549, 111.012166)"><g><path d="M 54.859375 -35.09375 C 54.859375 -23.351562 52.726562 -14.375 48.46875 -8.15625 C 44.21875 -1.9375 38.148438 1.171875 30.265625 1.171875 C 22.453125 1.171875 16.414062 -1.847656 12.15625 -7.890625 C 7.894531 -13.941406 5.6875 -22.601562 5.53125 -33.875 L 5.53125 -49.90625 C 5.53125 -61.601562 7.648438 -70.550781 11.890625 -76.75 C 16.128906 -82.957031 22.210938 -86.0625 30.140625 -86.0625 C 38.066406 -86.0625 44.148438 -82.988281 48.390625 -76.84375 C 52.628906 -70.695312 54.785156 -61.929688 54.859375 -50.546875 Z M 38.3125 -52.296875 C 38.3125 -58.984375 37.648438 -64 36.328125 -67.34375 C 35.003906 -70.6875 32.941406 -72.359375 30.140625 -72.359375 C 24.890625 -72.359375 22.171875 -66.234375 21.984375 -53.984375 L 21.984375 -32.828125 C 21.984375 -25.984375 22.648438 -20.890625 23.984375 -17.546875 C 25.328125 -14.203125 27.421875 -12.53125 30.265625 -12.53125 C 32.941406 -12.53125 34.929688 -14.09375 36.234375 -17.21875 C 37.535156 -20.351562 38.226562 -25.144531 38.3125 -31.59375 Z M 38.3125 -52.296875 "/></g></g></g><g fill="#5a3055" fill-opacity="1"><g transform="translate(153.444125, 276.285024)"><g><path d="M 6.828125 0 L 6.828125 -84.890625 L 33.0625 -84.890625 C 41.914062 -84.890625 48.644531 -82.914062 53.25 -78.96875 C 57.863281 -75.03125 60.171875 -69.25 60.171875 -61.625 C 60.171875 -57.3125 59.21875 -53.597656 57.3125 -50.484375 C 55.40625 -47.378906 52.800781 -45.109375 49.5 -43.671875 C 53.3125 -42.578125 56.242188 -40.390625 58.296875 -37.109375 C 60.359375 -33.828125 61.390625 -29.773438 61.390625 -24.953125 C 61.390625 -16.710938 59.125 -10.492188 54.59375 -6.296875 C 50.070312 -2.097656 43.515625 0 34.921875 0 Z M 23.96875 -36.90625 L 23.96875 -14.21875 L 34.921875 -14.21875 C 37.992188 -14.21875 40.328125 -15.171875 41.921875 -17.078125 C 43.515625 -18.984375 44.3125 -21.6875 44.3125 -25.1875 C 44.3125 -32.800781 41.550781 -36.707031 36.03125 -36.90625 Z M 23.96875 -49.390625 L 32.890625 -49.390625 C 39.609375 -49.390625 42.96875 -52.863281 42.96875 -59.8125 C 42.96875 -63.664062 42.191406 -66.425781 40.640625 -68.09375 C 39.085938 -69.769531 36.5625 -70.609375 33.0625 -70.609375 L 23.96875 -70.609375 Z M 23.96875 -49.390625 "/></g></g></g><g fill="#5a3055" fill-opacity="1"><g transform="translate(220.423758, 276.285024)"><g><path d="M 62.03125 -84.890625 L 62.03125 -26.125 C 61.957031 -17.300781 59.53125 -10.546875 54.75 -5.859375 C 49.96875 -1.171875 43.109375 1.171875 34.171875 1.171875 C 25.066406 1.171875 18.113281 -1.195312 13.3125 -5.9375 C 8.519531 -10.6875 6.125 -17.550781 6.125 -26.53125 L 6.125 -84.890625 L 23.375 -84.890625 L 23.375 -26.46875 C 23.375 -21.644531 24.148438 -18.203125 25.703125 -16.140625 C 27.265625 -14.085938 30.082031 -13.0625 34.15625 -13.0625 C 38.238281 -13.0625 41.035156 -14.082031 42.546875 -16.125 C 44.066406 -18.164062 44.847656 -21.515625 44.890625 -26.171875 L 44.890625 -84.890625 Z M 62.03125 -84.890625 "/></g></g></g><g fill="#5a3055" fill-opacity="1"><g transform="translate(288.627561, 276.285024)"><g><path d="M 6.828125 0 L 6.828125 -84.890625 L 29.265625 -84.890625 C 39.179688 -84.890625 47.082031 -81.738281 52.96875 -75.4375 C 58.851562 -69.144531 61.859375 -60.519531 61.984375 -49.5625 L 61.984375 -35.796875 C 61.984375 -24.640625 59.035156 -15.882812 53.140625 -9.53125 C 47.253906 -3.175781 39.140625 0 28.796875 0 Z M 23.96875 -70.609375 L 23.96875 -14.21875 L 29.09375 -14.21875 C 34.8125 -14.21875 38.832031 -15.722656 41.15625 -18.734375 C 43.488281 -21.753906 44.710938 -26.957031 44.828125 -34.34375 L 44.828125 -49.09375 C 44.828125 -57.019531 43.71875 -62.546875 41.5 -65.671875 C 39.289062 -68.804688 35.523438 -70.453125 30.203125 -70.609375 Z M 23.96875 -70.609375 "/></g></g></g><g fill="#5a3055" fill-opacity="1"><g transform="translate(356.073544, 276.285024)"><g><path d="M 42.671875 -22.265625 C 42.671875 -25.734375 41.785156 -28.347656 40.015625 -30.109375 C 38.253906 -31.878906 35.039062 -33.71875 30.375 -35.625 C 21.863281 -38.851562 15.738281 -42.632812 12 -46.96875 C 8.269531 -51.300781 6.40625 -56.421875 6.40625 -62.328125 C 6.40625 -69.484375 8.941406 -75.226562 14.015625 -79.5625 C 19.085938 -83.894531 25.53125 -86.0625 33.34375 -86.0625 C 38.550781 -86.0625 43.195312 -84.960938 47.28125 -82.765625 C 51.363281 -80.566406 54.503906 -77.460938 56.703125 -73.453125 C 58.898438 -69.453125 60 -64.90625 60 -59.8125 L 42.90625 -59.8125 C 42.90625 -63.78125 42.0625 -66.800781 40.375 -68.875 C 38.6875 -70.957031 36.25 -72 33.0625 -72 C 30.0625 -72 27.726562 -71.113281 26.0625 -69.34375 C 24.394531 -67.582031 23.5625 -65.203125 23.5625 -62.203125 C 23.5625 -59.878906 24.492188 -57.773438 26.359375 -55.890625 C 28.222656 -54.003906 31.523438 -52.050781 36.265625 -50.03125 C 44.546875 -47.03125 50.5625 -43.351562 54.3125 -39 C 58.0625 -34.644531 59.9375 -29.109375 59.9375 -22.390625 C 59.9375 -15.003906 57.582031 -9.226562 52.875 -5.0625 C 48.175781 -0.90625 41.785156 1.171875 33.703125 1.171875 C 28.222656 1.171875 23.226562 0.046875 18.71875 -2.203125 C 14.207031 -4.460938 10.675781 -7.691406 8.125 -11.890625 C 5.582031 -16.085938 4.3125 -21.046875 4.3125 -26.765625 L 21.515625 -26.765625 C 21.515625 -21.867188 22.46875 -18.3125 24.375 -16.09375 C 26.28125 -13.875 29.390625 -12.765625 33.703125 -12.765625 C 39.679688 -12.765625 42.671875 -15.929688 42.671875 -22.265625 Z M 42.671875 -22.265625 "/></g></g></g></g></g></svg>